<?xml version="1.0" encoding="UTF-8" standalone="no"?>
<!-- Created with Inkscape (http://www.inkscape.org/) -->

<svg
   width="520mm"
   height="200mm"
   viewBox="0 0 520 200"
   version="1.1"
   id="svg5"
   inkscape:version="1.2.1 (9c6d41e4, 2022-07-14)"
   sodipodi:docname="front.svg"
   xmlns:inkscape="http://www.inkscape.org/namespaces/inkscape"
   xmlns:sodipodi="http://sodipodi.sourceforge.net/DTD/sodipodi-0.dtd"
   xmlns="http://www.w3.org/2000/svg"
   xmlns:svg="http://www.w3.org/2000/svg">
  <sodipodi:namedview
     id="namedview7"
     pagecolor="#ffffff"
     bordercolor="#666666"
     borderopacity="1.0"
     inkscape:showpageshadow="2"
     inkscape:pageopacity="0.0"
     inkscape:pagecheckerboard="0"
     inkscape:deskcolor="#d1d1d1"
     inkscape:document-units="mm"
     showgrid="false"
     inkscape:zoom="0.49510209"
     inkscape:cx="989.69487"
     inkscape:cy="482.72872"
     inkscape:window-width="1843"
     inkscape:window-height="1298"
     inkscape:window-x="483"
     inkscape:window-y="168"
     inkscape:window-maximized="0"
     inkscape:current-layer="p-3" />
  <defs
     id="defs2" />
  <g
     inkscape:label="Layer 1"
     inkscape:groupmode="layer"
     id="layer1">
    <g
       id="g4885"
       transform="translate(20.357965,11.579958)"
       inkscape:label="AllBoxes">
      <path
         id="rect234"
         style="fill:none;stroke:#ff0000;stroke-width:0.0999994;stroke-linejoin:bevel"
         d="m 38.29203,15.520035 h 31.900002 c 1.108,0 2,0.9366 2,2.1 v 66.600003 c 0,1.1634 -0.892,2.1 -2,2.1 H 38.29203 c -1.108,0 -2,-0.9366 -2,-2.1 V 17.620035 c 0,-1.1634 0.892,-2.1 2,-2.1 z" />
      <path
         id="rect3365"
         style="fill:none;stroke:#0000ff;stroke-width:0.422;stroke-linejoin:bevel"
         d="m 72.453033,28.131037 h 4.778001 v 45.577999 h -4.778001 z" />
      <path
         id="rect3365-1"
         style="fill:none;stroke:#0000ff;stroke-width:0.422002;stroke-linejoin:bevel"
         d="m 44.453033,86.581039 h 19.578 v 3.678 h -19.578 z" />
      <path
         id="rect4641"
         style="fill:none;stroke:#ff0000;stroke-width:0.0999994;stroke-linejoin:bevel"
         d="m 38.29203,90.520042 h 31.900002 c 1.108,0 2,0.9366 2,2.1 v 66.600008 c 0,1.1634 -0.892,2.1 -2,2.1 H 38.29203 c -1.108,0 -2,-0.9366 -2,-2.1 V 92.620042 c 0,-1.1634 0.892,-2.1 2,-2.1 z" />
      <path
         id="rect4643"
         style="fill:none;stroke:#0000ff;stroke-width:0.422;stroke-linejoin:bevel"
         d="m 72.453033,103.13104 h 4.778001 v 45.578 h -4.778001 z" />
      <g
         id="use4605"
         inkscape:label="SingleBox"
         inkscape:tile-x0="36.24203"
         inkscape:tile-y0="15.470035"
         transform="translate(41.200002)">
        <path
           id="rect4649"
           style="fill:none;stroke:#ff0000;stroke-width:0.0999994;stroke-linejoin:bevel"
           d="m 38.29203,15.520035 h 31.900002 c 1.108,0 2,0.9366 2,2.1 v 66.600003 c 0,1.1634 -0.892,2.1 -2,2.1 H 38.29203 c -1.108,0 -2,-0.9366 -2,-2.1 V 17.620035 c 0,-1.1634 0.892,-2.1 2,-2.1 z" />
        <path
           id="rect4651"
           style="fill:none;stroke:#0000ff;stroke-width:0.422;stroke-linejoin:bevel"
           d="m 72.453033,28.131037 h 4.778001 v 45.577999 h -4.778001 z" />
        <path
           id="rect4653"
           style="fill:none;stroke:#0000ff;stroke-width:0.422002;stroke-linejoin:bevel"
           d="m 44.453033,86.581039 h 19.578 v 3.678 h -19.578 z" />
      </g>
      <path
         id="rect4657"
         style="fill:none;stroke:#ff0000;stroke-width:0.0999994;stroke-linejoin:bevel"
         d="m 79.492035,90.520042 h 31.900005 c 1.108,0 2,0.9366 2,2.1 v 66.600008 c 0,1.1634 -0.892,2.1 -2,2.1 H 79.492035 c -1.108,0 -2,-0.9366 -2,-2.1 V 92.620042 c 0,-1.1634 0.892,-2.1 2,-2.1 z" />
      <path
         id="rect4659"
         style="fill:none;stroke:#0000ff;stroke-width:0.422;stroke-linejoin:bevel"
         d="m 113.65304,103.13104 h 4.778 v 45.578 h -4.778 z" />
      <g
         id="use4609"
         inkscape:label="SingleBox"
         inkscape:tile-x0="36.24203"
         inkscape:tile-y0="15.470035"
         transform="translate(82.400005)">
        <path
           id="rect4665"
           style="fill:none;stroke:#ff0000;stroke-width:0.0999994;stroke-linejoin:bevel"
           d="m 38.29203,15.520035 h 31.900002 c 1.108,0 2,0.9366 2,2.1 v 66.600003 c 0,1.1634 -0.892,2.1 -2,2.1 H 38.29203 c -1.108,0 -2,-0.9366 -2,-2.1 V 17.620035 c 0,-1.1634 0.892,-2.1 2,-2.1 z" />
        <path
           id="rect4667"
           style="fill:none;stroke:#0000ff;stroke-width:0.422;stroke-linejoin:bevel"
           d="m 72.453033,28.131037 h 4.778001 v 45.577999 h -4.778001 z" />
        <path
           id="rect4669"
           style="fill:none;stroke:#0000ff;stroke-width:0.422002;stroke-linejoin:bevel"
           d="m 44.453033,86.581039 h 19.578 v 3.678 h -19.578 z" />
      </g>
      <path
         id="rect4673"
         style="fill:none;stroke:#ff0000;stroke-width:0.0999994;stroke-linejoin:bevel"
         d="m 120.69203,90.520042 h 31.9 c 1.108,0 2,0.9366 2,2.1 v 66.600008 c 0,1.1634 -0.892,2.1 -2,2.1 h -31.9 c -1.108,0 -2,-0.9366 -2,-2.1 V 92.620042 c 0,-1.1634 0.892,-2.1 2,-2.1 z" />
      <path
         id="rect4675"
         style="fill:none;stroke:#0000ff;stroke-width:0.422;stroke-linejoin:bevel"
         d="m 154.85304,103.13104 h 4.778 v 45.578 h -4.778 z" />
      <g
         id="use4613"
         inkscape:label="SingleBox"
         inkscape:tile-x0="36.24203"
         inkscape:tile-y0="15.470035"
         transform="translate(123.60001)">
        <path
           id="rect4681"
           style="fill:none;stroke:#ff0000;stroke-width:0.0999994;stroke-linejoin:bevel"
           d="m 38.29203,15.520035 h 31.900002 c 1.108,0 2,0.9366 2,2.1 v 66.600003 c 0,1.1634 -0.892,2.1 -2,2.1 H 38.29203 c -1.108,0 -2,-0.9366 -2,-2.1 V 17.620035 c 0,-1.1634 0.892,-2.1 2,-2.1 z" />
        <path
           id="rect4683"
           style="fill:none;stroke:#0000ff;stroke-width:0.422;stroke-linejoin:bevel"
           d="m 72.453033,28.131037 h 4.778001 v 45.577999 h -4.778001 z" />
        <path
           id="rect4685"
           style="fill:none;stroke:#0000ff;stroke-width:0.422002;stroke-linejoin:bevel"
           d="m 44.453033,86.581039 h 19.578 v 3.678 h -19.578 z" />
      </g>
      <path
         id="rect4689"
         style="fill:none;stroke:#ff0000;stroke-width:0.0999994;stroke-linejoin:bevel"
         d="m 161.89204,90.520042 h 31.90001 c 1.108,0 2,0.9366 2,2.1 v 66.600008 c 0,1.1634 -0.892,2.1 -2,2.1 h -31.90001 c -1.108,0 -2,-0.9366 -2,-2.1 V 92.620042 c 0,-1.1634 0.892,-2.1 2,-2.1 z" />
      <path
         id="rect4691"
         style="fill:none;stroke:#0000ff;stroke-width:0.422;stroke-linejoin:bevel"
         d="m 196.05304,103.13104 h 4.778 v 45.578 h -4.778 z" />
      <g
         id="use4617"
         inkscape:label="SingleBox"
         inkscape:tile-x0="36.24203"
         inkscape:tile-y0="15.470035"
         transform="translate(164.80001)">
        <path
           id="rect4697"
           style="fill:none;stroke:#ff0000;stroke-width:0.0999994;stroke-linejoin:bevel"
           d="m 38.29203,15.520035 h 31.900002 c 1.108,0 2,0.9366 2,2.1 v 66.600003 c 0,1.1634 -0.892,2.1 -2,2.1 H 38.29203 c -1.108,0 -2,-0.9366 -2,-2.1 V 17.620035 c 0,-1.1634 0.892,-2.1 2,-2.1 z" />
        <path
           id="rect4699"
           style="fill:none;stroke:#0000ff;stroke-width:0.422;stroke-linejoin:bevel"
           d="m 72.453033,28.131037 h 4.778001 v 45.577999 h -4.778001 z" />
        <path
           id="rect4701"
           style="fill:none;stroke:#0000ff;stroke-width:0.422002;stroke-linejoin:bevel"
           d="m 44.453033,86.581039 h 19.578 v 3.678 h -19.578 z" />
      </g>
      <path
         id="rect4705"
         style="fill:none;stroke:#ff0000;stroke-width:0.0999994;stroke-linejoin:bevel"
         d="m 203.09204,90.520042 h 31.9 c 1.108,0 2,0.9366 2,2.1 v 66.600008 c 0,1.1634 -0.892,2.1 -2,2.1 h -31.9 c -1.108,0 -2,-0.9366 -2,-2.1 V 92.620042 c 0,-1.1634 0.892,-2.1 2,-2.1 z" />
      <path
         id="rect4707"
         style="fill:none;stroke:#0000ff;stroke-width:0.422;stroke-linejoin:bevel"
         d="m 237.25304,103.13104 h 4.778 v 45.578 h -4.778 z" />
      <g
         id="use4621"
         inkscape:label="SingleBox"
         inkscape:tile-x0="36.24203"
         inkscape:tile-y0="15.470035"
         transform="translate(206.00001)">
        <path
           id="rect4713"
           style="fill:none;stroke:#ff0000;stroke-width:0.0999994;stroke-linejoin:bevel"
           d="m 38.29203,15.520035 h 31.900002 c 1.108,0 2,0.9366 2,2.1 v 66.600003 c 0,1.1634 -0.892,2.1 -2,2.1 H 38.29203 c -1.108,0 -2,-0.9366 -2,-2.1 V 17.620035 c 0,-1.1634 0.892,-2.1 2,-2.1 z" />
        <path
           id="rect4715"
           style="fill:none;stroke:#0000ff;stroke-width:0.422;stroke-linejoin:bevel"
           d="m 72.453033,28.131037 h 4.778001 v 45.577999 h -4.778001 z" />
        <path
           id="rect4717"
           style="fill:none;stroke:#0000ff;stroke-width:0.422002;stroke-linejoin:bevel"
           d="m 44.453033,86.581039 h 19.578 v 3.678 h -19.578 z" />
      </g>
      <path
         id="rect4721"
         style="fill:none;stroke:#ff0000;stroke-width:0.0999994;stroke-linejoin:bevel"
         d="m 244.29204,90.520042 h 31.9 c 1.108,0 2,0.9366 2,2.1 v 66.600008 c 0,1.1634 -0.892,2.1 -2,2.1 h -31.9 c -1.108,0 -2,-0.9366 -2,-2.1 V 92.620042 c 0,-1.1634 0.892,-2.1 2,-2.1 z" />
      <path
         id="rect4723"
         style="fill:none;stroke:#0000ff;stroke-width:0.422;stroke-linejoin:bevel"
         d="m 278.45303,103.13104 h 4.778 v 45.578 h -4.778 z" />
      <g
         id="use4625"
         inkscape:label="SingleBox"
         inkscape:tile-x0="36.24203"
         inkscape:tile-y0="15.470035"
         transform="translate(247.20001)">
        <path
           id="rect4729"
           style="fill:none;stroke:#ff0000;stroke-width:0.0999994;stroke-linejoin:bevel"
           d="m 38.29203,15.520035 h 31.900002 c 1.108,0 2,0.9366 2,2.1 v 66.600003 c 0,1.1634 -0.892,2.1 -2,2.1 H 38.29203 c -1.108,0 -2,-0.9366 -2,-2.1 V 17.620035 c 0,-1.1634 0.892,-2.1 2,-2.1 z" />
        <path
           id="rect4731"
           style="fill:none;stroke:#0000ff;stroke-width:0.422;stroke-linejoin:bevel"
           d="m 72.453033,28.131037 h 4.778001 v 45.577999 h -4.778001 z" />
        <path
           id="rect4733"
           style="fill:none;stroke:#0000ff;stroke-width:0.422002;stroke-linejoin:bevel"
           d="m 44.453033,86.581039 h 19.578 v 3.678 h -19.578 z" />
      </g>
      <path
         id="rect4737"
         style="fill:none;stroke:#ff0000;stroke-width:0.0999994;stroke-linejoin:bevel"
         d="m 285.49203,90.520042 h 31.90001 c 1.108,0 2,0.9366 2,2.1 v 66.600008 c 0,1.1634 -0.892,2.1 -2,2.1 h -31.90001 c -1.108,0 -2,-0.9366 -2,-2.1 V 92.620042 c 0,-1.1634 0.892,-2.1 2,-2.1 z" />
      <path
         id="rect4739"
         style="fill:none;stroke:#0000ff;stroke-width:0.422;stroke-linejoin:bevel"
         d="m 319.65305,103.13104 h 4.778 v 45.578 h -4.778 z" />
      <g
         id="use4629"
         inkscape:label="SingleBox"
         inkscape:tile-x0="36.24203"
         inkscape:tile-y0="15.470035"
         transform="translate(288.40002)">
        <path
           id="rect4745"
           style="fill:none;stroke:#ff0000;stroke-width:0.0999994;stroke-linejoin:bevel"
           d="m 38.29203,15.520035 h 31.900002 c 1.108,0 2,0.9366 2,2.1 v 66.600003 c 0,1.1634 -0.892,2.1 -2,2.1 H 38.29203 c -1.108,0 -2,-0.9366 -2,-2.1 V 17.620035 c 0,-1.1634 0.892,-2.1 2,-2.1 z" />
        <path
           id="rect4747"
           style="fill:none;stroke:#0000ff;stroke-width:0.422;stroke-linejoin:bevel"
           d="m 72.453033,28.131037 h 4.778001 v 45.577999 h -4.778001 z" />
        <path
           id="rect4749"
           style="fill:none;stroke:#0000ff;stroke-width:0.422002;stroke-linejoin:bevel"
           d="m 44.453033,86.581039 h 19.578 v 3.678 h -19.578 z" />
      </g>
      <path
         id="rect4753"
         style="fill:none;stroke:#ff0000;stroke-width:0.0999994;stroke-linejoin:bevel"
         d="m 326.69205,90.520042 h 31.9 c 1.108,0 2,0.9366 2,2.1 v 66.600008 c 0,1.1634 -0.892,2.1 -2,2.1 h -31.9 c -1.108,0 -2,-0.9366 -2,-2.1 V 92.620042 c 0,-1.1634 0.892,-2.1 2,-2.1 z" />
      <path
         id="rect4755"
         style="fill:none;stroke:#0000ff;stroke-width:0.422;stroke-linejoin:bevel"
         d="m 360.85306,103.13104 h 4.778 v 45.578 h -4.778 z" />
      <g
         id="use4633"
         inkscape:label="SingleBox"
         inkscape:tile-x0="36.24203"
         inkscape:tile-y0="15.470035"
         transform="translate(329.60002)">
        <path
           id="rect4761"
           style="fill:none;stroke:#ff0000;stroke-width:0.0999994;stroke-linejoin:bevel"
           d="m 38.29203,15.520035 h 31.900002 c 1.108,0 2,0.9366 2,2.1 v 66.600003 c 0,1.1634 -0.892,2.1 -2,2.1 H 38.29203 c -1.108,0 -2,-0.9366 -2,-2.1 V 17.620035 c 0,-1.1634 0.892,-2.1 2,-2.1 z" />
        <path
           id="rect4763"
           style="fill:none;stroke:#0000ff;stroke-width:0.422;stroke-linejoin:bevel"
           d="m 72.453033,28.131037 h 4.778001 v 45.577999 h -4.778001 z" />
        <path
           id="rect4765"
           style="fill:none;stroke:#0000ff;stroke-width:0.422002;stroke-linejoin:bevel"
           d="m 44.453033,86.581039 h 19.578 v 3.678 h -19.578 z" />
      </g>
      <path
         id="rect4769"
         style="fill:none;stroke:#ff0000;stroke-width:0.0999994;stroke-linejoin:bevel"
         d="m 367.89206,90.520042 h 31.9 c 1.108,0 2,0.9366 2,2.1 v 66.600008 c 0,1.1634 -0.892,2.1 -2,2.1 h -31.9 c -1.108,0 -2,-0.9366 -2,-2.1 V 92.620042 c 0,-1.1634 0.892,-2.1 2,-2.1 z" />
      <path
         id="rect4771"
         style="fill:none;stroke:#0000ff;stroke-width:0.422;stroke-linejoin:bevel"
         d="m 402.05304,103.13104 h 4.778 v 45.578 h -4.778 z" />
      <path
         id="rect4777"
         style="fill:none;stroke:#ff0000;stroke-width:0.0999994;stroke-linejoin:bevel"
         d="m 409.09204,15.520035 h 31.9 c 1.108,0 2,0.9366 2,2.1 v 66.600003 c 0,1.1634 -0.892,2.1 -2,2.1 h -31.9 c -1.108,0 -2,-0.9366 -2,-2.1 V 17.620035 c 0,-1.1634 0.892,-2.1 2,-2.1 z" />
      <path
         id="rect4781"
         style="fill:none;stroke:#0000ff;stroke-width:0.422002;stroke-linejoin:bevel"
         d="m 415.25305,86.581039 h 19.578 v 3.678 h -19.578 z" />
      <path
         id="rect4785"
         style="fill:none;stroke:#ff0000;stroke-width:0.0999994;stroke-linejoin:bevel"
         d="m 409.09204,90.520042 h 31.9 c 1.108,0 2,0.9366 2,2.1 v 66.600008 c 0,1.1634 -0.892,2.1 -2,2.1 h -31.9 c -1.108,0 -2,-0.9366 -2,-2.1 V 92.620042 c 0,-1.1634 0.892,-2.1 2,-2.1 z" />
    </g>
    <g
       id="p-3"
       style="fill:none;stroke-linecap:round;stroke-linejoin:round;stroke:#ff0000;stroke-opacity:1"
       transform="translate(21.9,-8.1)">
      <path
         d="M 13.1,203.2 H 28 c 0.1,0 0,-0.1 0,0 v 2.9 c 0,0.055 0.045,0.1 0.1,0.1 h 12 c 0.055,0 0.1,-0.045 0.1,-0.1 v -2.9 c 0,-0.1 -0.1,0 0,0 H 52 c 0.1,0 0,-0.1 0,0 v 2.9 c 0,0.055 0.045,0.1 0.1,0.1 h 12 c 0.055,0 0.1,-0.045 0.1,-0.1 v -2.9 c 0,-0.1 -0.1,0 0,0 H 76 c 0.1,0 0,-0.1 0,0 v 2.9 c 0,0.055 0.045,0.1 0.1,0.1 h 12 c 0.055,0 0.1,-0.045 0.1,-0.1 v -2.9 c 0,-0.1 -0.1,0 0,0 H 100 c 0.1,0 0,-0.1 0,0 v 2.9 c 0,0.055 0.045,0.1 0.1,0.1 h 12 c 0.055,0 0.1,-0.045 0.1,-0.1 v -2.9 c 0,-0.1 -0.1,0 0,0 H 124 c 0.1,0 0,-0.1 0,0 v 2.9 c 0,0.055 0.045,0.1 0.1,0.1 h 12 c 0.055,0 0.1,-0.045 0.1,-0.1 v -2.9 c 0,-0.1 -0.1,0 0,0 H 148 c 0.1,0 0,-0.1 0,0 v 2.9 c 0,0.055 0.045,0.1 0.1,0.1 h 12 c 0.055,0 0.1,-0.045 0.1,-0.1 v -2.9 c 0,-0.1 -0.1,0 0,0 H 172 c 0.1,0 0,-0.1 0,0 v 2.9 c 0,0.055 0.045,0.1 0.1,0.1 h 12 c 0.055,0 0.1,-0.045 0.1,-0.1 v -2.9 c 0,-0.1 -0.1,0 0,0 H 196 c 0.1,0 0,-0.1 0,0 v 2.9 c 0,0.055 0.045,0.1 0.1,0.1 h 12 c 0.055,0 0.1,-0.045 0.1,-0.1 v -2.9 c 0,-0.1 -0.1,0 0,0 H 220 c 0.1,0 0,-0.1 0,0 v 2.9 c 0,0.055 0.045,0.1 0.1,0.1 h 12 c 0.055,0 0.1,-0.045 0.1,-0.1 v -2.9 c 0,-0.1 -0.1,0 0,0 H 244 c 0.1,0 0,-0.1 0,0 v 2.9 c 0,0.055 0.045,0.1 0.1,0.1 h 12 c 0.055,0 0.1,-0.045 0.1,-0.1 v -2.9 c 0,-0.1 -0.1,0 0,0 H 268 c 0.1,0 0,-0.1 0,0 v 2.9 c 0,0.055 0.045,0.1 0.1,0.1 h 12 c 0.055,0 0.1,-0.045 0.1,-0.1 v -2.9 c 0,-0.1 -0.1,0 0,0 H 292 c 0.1,0 0,-0.1 0,0 v 2.9 c 0,0.055 0.045,0.1 0.1,0.1 h 12 c 0.055,0 0.1,-0.045 0.1,-0.1 v -2.9 c 0,-0.1 -0.1,0 0,0 H 316 c 0.1,0 0,-0.1 0,0 v 2.9 c 0,0.055 0.045,0.1 0.1,0.1 h 12 c 0.055,0 0.1,-0.045 0.1,-0.1 v -2.9 c 0,-0.1 -0.1,0 0,0 H 340 c 0.1,0 0,-0.1 0,0 v 2.9 c 0,0.055 0.045,0.1 0.1,0.1 h 12 c 0.055,0 0.1,-0.045 0.1,-0.1 v -2.9 c 0,-0.1 -0.1,0 0,0 H 364 c 0.1,0 0,-0.1 0,0 v 2.9 c 0,0.055 0.045,0.1 0.1,0.1 h 12 c 0.055,0 0.1,-0.045 0.1,-0.1 v -2.9 c 0,-0.1 -0.1,0 0,0 H 388 c 0.1,0 0,-0.1 0,0 v 2.9 c 0,0.055 0.045,0.1 0.1,0.1 h 12 c 0.055,0 0.1,-0.045 0.1,-0.1 v -2.9 c 0,-0.1 -0.1,0 0,0 H 412 c 0.1,0 0,-0.1 0,0 v 2.9 c 0,0.055 0.045,0.1 0.1,0.1 h 12 c 0.055,0 0.1,-0.045 0.1,-0.1 v -2.9 c 0,-0.1 -0.1,0 0,0 H 436 c 0.1,0 0,-0.1 0,0 v 2.9 c 0,0.055 0.045,0.1 0.1,0.1 h 12 c 0.055,0 0.1,-0.045 0.1,-0.1 v -2.9 c 0,-0.1 -0.1,0 0,0 h 14.9 c 0.055,0 0.1,-0.045 0.1,-0.1 v -16.9 c 0,-0.1 -0.1,0 0,0 h 2.9 c 0.055,0 0.1,-0.045 0.1,-0.1 v -12 c 0,-0.055 -0.045,-0.1 -0.1,-0.1 h -2.9 c -0.1,0 0,0.1 0,0 v -11.8 c 0,-0.1 -0.1,0 0,0 h 2.9 c 0.055,0 0.1,-0.045 0.1,-0.1 v -12 c 0,-0.055 -0.045,-0.1 -0.1,-0.1 h -2.9 c -0.1,0 0,0.1 0,0 v -11.8 c 0,-0.1 -0.1,0 0,0 h 2.9 c 0.055,0 0.1,-0.045 0.1,-0.1 v -12 c 0,-0.055 -0.045,-0.1 -0.1,-0.1 h -2.9 c -0.1,0 0,0.1 0,0 v -11.8 c 0,-0.1 -0.1,0 0,0 h 2.9 c 0.055,0 0.1,-0.045 0.1,-0.1 v -12 c 0,-0.055 -0.045,-0.1 -0.1,-0.1 h -2.9 c -0.1,0 0,0.1 0,0 V 90.2 c 0,-0.1 -0.1,0 0,0 h 2.9 c 0.055,0 0.1,-0.045 0.1,-0.1 v -12 c 0,-0.055 -0.045,-0.1 -0.1,-0.1 h -2.9 c -0.1,0 0,0.1 0,0 V 66.2 c 0,-0.1 -0.1,0 0,0 h 2.9 c 0.055,0 0.1,-0.045 0.1,-0.1 v -12 c 0,-0.055 -0.045,-0.1 -0.1,-0.1 h -2.9 c -0.1,0 0,0.1 0,0 V 42.2 c 0,-0.1 -0.1,0 0,0 h 2.9 c 0.055,0 0.1,-0.045 0.1,-0.1 v -12 c 0,-0.055 -0.045,-0.1 -0.1,-0.1 h -2.9 c -0.1,0 0,0.1 0,0 V 13.1 c 0,-0.055 -0.045,-0.1 -0.1,-0.1 h -14.9 c -0.1,0 0,0.1 0,0 v -2.9 c 0,-0.055 -0.045,-0.1 -0.1,-0.1 h -12 c -0.055,0 -0.1,0.045 -0.1,0.1 V 13 c 0,0.1 0.1,0 0,0 h -11.8 c -0.1,0 0,0.1 0,0 v -2.9 c 0,-0.055 -0.045,-0.1 -0.1,-0.1 h -12 c -0.055,0 -0.1,0.045 -0.1,0.1 V 13 c 0,0.1 0.1,0 0,0 h -11.8 c -0.1,0 0,0.1 0,0 v -2.9 c 0,-0.055 -0.045,-0.1 -0.1,-0.1 h -12 c -0.055,0 -0.1,0.045 -0.1,0.1 V 13 c 0,0.1 0.1,0 0,0 h -11.8 c -0.1,0 0,0.1 0,0 v -2.9 c 0,-0.055 -0.045,-0.1 -0.1,-0.1 h -12 c -0.055,0 -0.1,0.045 -0.1,0.1 V 13 c 0,0.1 0.1,0 0,0 h -11.8 c -0.1,0 0,0.1 0,0 v -2.9 c 0,-0.055 -0.045,-0.1 -0.1,-0.1 h -12 c -0.055,0 -0.1,0.045 -0.1,0.1 V 13 c 0,0.1 0.1,0 0,0 h -11.8 c -0.1,0 0,0.1 0,0 v -2.9 c 0,-0.055 -0.045,-0.1 -0.1,-0.1 h -12 c -0.055,0 -0.1,0.045 -0.1,0.1 V 13 c 0,0.1 0.1,0 0,0 h -11.8 c -0.1,0 0,0.1 0,0 v -2.9 c 0,-0.055 -0.045,-0.1 -0.1,-0.1 h -12 c -0.055,0 -0.1,0.045 -0.1,0.1 V 13 c 0,0.1 0.1,0 0,0 h -11.8 c -0.1,0 0,0.1 0,0 v -2.9 c 0,-0.055 -0.045,-0.1 -0.1,-0.1 h -12 c -0.055,0 -0.1,0.045 -0.1,0.1 V 13 c 0,0.1 0.1,0 0,0 h -11.8 c -0.1,0 0,0.1 0,0 v -2.9 c 0,-0.055 -0.045,-0.1 -0.1,-0.1 h -12 c -0.055,0 -0.1,0.045 -0.1,0.1 V 13 c 0,0.1 0.1,0 0,0 h -11.8 c -0.1,0 0,0.1 0,0 v -2.9 c 0,-0.055 -0.045,-0.1 -0.1,-0.1 h -12 c -0.055,0 -0.1,0.045 -0.1,0.1 V 13 c 0,0.1 0.1,0 0,0 h -11.8 c -0.1,0 0,0.1 0,0 v -2.9 c 0,-0.055 -0.045,-0.1 -0.1,-0.1 h -12 c -0.055,0 -0.1,0.045 -0.1,0.1 V 13 c 0,0.1 0.1,0 0,0 h -11.8 c -0.1,0 0,0.1 0,0 v -2.9 c 0,-0.055 -0.045,-0.1 -0.1,-0.1 h -12 c -0.055,0 -0.1,0.045 -0.1,0.1 V 13 c 0,0.1 0.1,0 0,0 h -11.8 c -0.1,0 0,0.1 0,0 v -2.9 c 0,-0.055 -0.045,-0.1 -0.1,-0.1 h -12 c -0.055,0 -0.1,0.045 -0.1,0.1 V 13 c 0,0.1 0.1,0 0,0 h -11.8 c -0.1,0 0,0.1 0,0 v -2.9 c 0,-0.055 -0.045,-0.1 -0.1,-0.1 h -12 c -0.055,0 -0.1,0.045 -0.1,0.1 V 13 c 0,0.1 0.1,0 0,0 h -11.8 c -0.1,0 0,0.1 0,0 v -2.9 c 0,-0.055 -0.045,-0.1 -0.1,-0.1 h -12 c -0.055,0 -0.1,0.045 -0.1,0.1 V 13 c 0,0.1 0.1,0 0,0 H 88.2 c -0.1,0 0,0.1 0,0 V 10.1 C 88.2,10.045 88.155,10 88.1,10 h -12 C 76.045,10 76,10.045 76,10.1 V 13 c 0,0.1 0.1,0 0,0 H 64.2 c -0.1,0 0,0.1 0,0 V 10.1 C 64.2,10.045 64.155,10 64.1,10 h -12 C 52.045,10 52,10.045 52,10.1 V 13 c 0,0.1 0.1,0 0,0 H 40.2 c -0.1,0 0,0.1 0,0 V 10.1 C 40.2,10.045 40.155,10 40.1,10 h -12 C 28.045,10 28,10.045 28,10.1 V 13 c 0,0.1 0.1,0 0,0 H 13.1 C 13.045,13 13,13.045 13,13.1 V 30 c 0,0.1 0.1,0 0,0 H 10.1 C 10.045,30 10,30.045 10,30.1 v 12 c 0,0.055 0.045,0.1 0.1,0.1 H 13 c 0.1,0 0,-0.1 0,0 V 54 c 0,0.1 0.1,0 0,0 H 10.1 C 10.045,54 10,54.045 10,54.1 v 12 c 0,0.055 0.045,0.1 0.1,0.1 H 13 c 0.1,0 0,-0.1 0,0 V 78 c 0,0.1 0.1,0 0,0 H 10.1 C 10.045,78 10,78.045 10,78.1 v 12 c 0,0.055 0.045,0.1 0.1,0.1 H 13 c 0.1,0 0,-0.1 0,0 V 102 c 0,0.1 0.1,0 0,0 h -2.9 c -0.055,0 -0.1,0.045 -0.1,0.1 v 12 c 0,0.055 0.045,0.1 0.1,0.1 H 13 c 0.1,0 0,-0.1 0,0 V 126 c 0,0.1 0.1,0 0,0 h -2.9 c -0.055,0 -0.1,0.045 -0.1,0.1 v 12 c 0,0.055 0.045,0.1 0.1,0.1 H 13 c 0.1,0 0,-0.1 0,0 V 150 c 0,0.1 0.1,0 0,0 h -2.9 c -0.055,0 -0.1,0.045 -0.1,0.1 v 12 c 0,0.055 0.045,0.1 0.1,0.1 H 13 c 0.1,0 0,-0.1 0,0 V 174 c 0,0.1 0.1,0 0,0 h -2.9 c -0.055,0 -0.1,0.045 -0.1,0.1 v 12 c 0,0.055 0.045,0.1 0.1,0.1 H 13 c 0.1,0 0,-0.1 0,0 v 16.9 c 0,0.055 0.045,0.1 0.1,0.1"
         stroke="#000000"
         stroke-width="0.2"
         id="path167"
         style="stroke:#ff0000;stroke-opacity:1" />
    </g>
  </g>
</svg>
